<svg xmlns="http://www.w3.org/2000/svg" xmlns:xlink="http://www.w3.org/1999/xlink" id="Capa_1" x="0px" y="0px" viewBox="0 0 934.4 296" style="enable-background:new 0 0 934.4 296;" xml:space="preserve"><style type="text/css">	.st0{fill:#7B1527;}	.st1{fill:#FFFFFF;}	.st2{fill:#333333;}</style><g id="Capa_2_00000119806893389563629580000008803715619938717839_">	<g id="Capa_1-2">		<circle class="st0" cx="148" cy="148" r="148"></circle>		<path class="st1" d="M154.7,66.4h104.5l-20,27.5h-51.9v41.3h47.5l-20,27.1h-27.5v67.3h-32.6V66.4z"></path>		<path class="st1" d="M141.3,229.6h-32.6v-67.3H81.1l-20-27.1h47.5V93.9H56.7l-20-27.5h104.5V229.6z"></path>		<path class="st2" d="M418.5,81.9h-25.7c-0.1,0-0.3,0.1-0.3,0.2c0,0,0,0.1,0,0.1v17.3c0,0.1,0.1,0.3,0.2,0.3c0,0,0,0,0.1,0h18   c0.3,0,0.7,0.2,0.7,0.5c0,0.1,0,0.1,0,0.2v2.9c0,0.3-0.2,0.7-0.5,0.7c-0.1,0-0.1,0-0.2,0h-18c-0.1,0-0.3,0.1-0.3,0.2   c0,0,0,0.1,0,0.1v21.5c0,0.3-0.2,0.7-0.5,0.7c-0.1,0-0.1,0-0.2,0h-3.6c-0.3,0-0.7-0.2-0.7-0.5c0-0.1,0-0.1,0-0.2V78.3   c0-0.3,0.2-0.7,0.5-0.7c0.1,0,0.1,0,0.2,0h30.2c0.3,0,0.7,0.2,0.7,0.5c0,0.1,0,0.1,0,0.2v2.9c0,0.3-0.2,0.7-0.5,0.7   C418.6,81.9,418.6,81.9,418.5,81.9z"></path>		<path class="st2" d="M479.6,126.1l-10.3-21.7c0-0.1-0.1-0.2-0.3-0.2h-11.9c-0.1,0-0.3,0.1-0.3,0.2c0,0,0,0.1,0,0.1v21.4   c0,0.3-0.2,0.7-0.5,0.7c-0.1,0-0.1,0-0.2,0h-3.6c-0.3,0-0.7-0.2-0.7-0.5c0-0.1,0-0.1,0-0.2V78.3c0-0.3,0.2-0.7,0.5-0.7   c0.1,0,0.1,0,0.2,0h18.1c3.6-0.2,7.1,1.2,9.7,3.7c2.5,2.6,3.9,6.1,3.7,9.8c0.1,3-0.9,5.9-2.7,8.3c-1.8,2.3-4.4,3.9-7.2,4.4   c-0.2,0.1-0.2,0.2-0.1,0.3l10.5,21.6c0.1,0.1,0.1,0.2,0.1,0.3c0,0.3-0.2,0.5-0.6,0.5h-3.7C480,126.6,479.7,126.4,479.6,126.1z    M456.8,82.2v17.7c0,0.1,0.1,0.3,0.2,0.3c0,0,0,0,0.1,0h13c4.8,0.3,8.8-3.4,9.1-8.2c0-0.3,0-0.6,0-0.9c0.1-2.5-0.8-4.9-2.5-6.6   c-1.7-1.7-4.1-2.7-6.6-2.6h-13C457,81.9,456.8,82,456.8,82.2C456.8,82.1,456.8,82.2,456.8,82.2z"></path>		<path class="st2" d="M550,126l-2.8-8.8c0-0.1-0.1-0.2-0.3-0.2H526c-0.1,0-0.3,0.1-0.3,0.2l-2.8,8.8c-0.1,0.4-0.5,0.6-0.8,0.6h-3.8   c-0.5,0-0.7-0.3-0.6-0.8l15.5-47.7c0.1-0.4,0.5-0.6,0.8-0.6h4.8c0.4,0,0.7,0.2,0.8,0.6l15.5,47.7l0.1,0.3c0,0.3-0.2,0.5-0.6,0.5   h-3.8C550.5,126.6,550.1,126.4,550,126z M527.1,112.8c0.1,0.1,0.2,0.1,0.2,0.1h18.1c0.1,0,0.2,0,0.2-0.1c0.1-0.1,0.1-0.2,0-0.2   L536.6,84c0-0.1-0.1-0.1-0.2-0.1c-0.1,0-0.2,0-0.2,0.1l-9.1,28.6C527,112.6,527,112.7,527.1,112.8L527.1,112.8z"></path>		<path class="st2" d="M618.7,77.6h3.6c0.3,0,0.7,0.2,0.7,0.5c0,0.1,0,0.1,0,0.2v47.6c0,0.3-0.2,0.7-0.5,0.7c-0.1,0-0.1,0-0.2,0   h-3.5c-0.3,0-0.7-0.2-0.8-0.5L594,87.2c0-0.1-0.1-0.2-0.2-0.2c-0.1,0-0.1,0.1-0.1,0.2l0.1,38.6c0,0.3-0.2,0.7-0.5,0.7   c-0.1,0-0.1,0-0.2,0h-3.6c-0.3,0-0.7-0.2-0.7-0.5c0-0.1,0-0.1,0-0.2V78.3c0-0.3,0.2-0.7,0.5-0.7c0.1,0,0.1,0,0.2,0h3.6   c0.3,0,0.7,0.2,0.8,0.5l23.9,38.8c0,0.1,0.1,0.2,0.2,0.2s0.1-0.1,0.1-0.2L618,78.3c0-0.3,0.2-0.7,0.5-0.7   C618.6,77.6,618.6,77.6,618.7,77.6z"></path>		<path class="st2" d="M666.9,125.3c-2.4-1.2-4.4-3.1-5.8-5.5c-1.4-2.5-2.1-5.3-2.1-8.2V92.4c-0.1-2.8,0.7-5.6,2.1-8.1   c1.4-2.3,3.4-4.2,5.8-5.4c2.7-1.3,5.6-2,8.6-1.9c3-0.1,5.9,0.6,8.6,1.9c2.4,1.2,4.4,3,5.8,5.3c1.4,2.4,2.1,5.1,2.1,7.9   c0,0.2-0.1,0.4-0.2,0.6c-0.1,0.1-0.3,0.2-0.5,0.2l-3.6,0.2c-0.5,0-0.7-0.2-0.7-0.6v-0.2c0.2-3-1-5.9-3.2-8c-2.3-2.1-5.3-3.1-8.3-3   c-3.1-0.1-6.1,0.9-8.3,3c-2.2,2.1-3.3,5-3.2,8v19.6c-0.1,3,1,5.8,3.2,7.9c4.8,4,11.8,4,16.7,0c2.1-2.1,3.3-5,3.2-7.9v-0.1   c0-0.4,0.2-0.6,0.7-0.6l3.6,0.2c0.5,0,0.7,0.2,0.7,0.6c0.1,2.8-0.7,5.6-2.1,8c-1.4,2.3-3.4,4.2-5.8,5.4c-2.7,1.3-5.6,2-8.6,1.9   C672.5,127.2,669.6,126.6,666.9,125.3z"></path>		<path class="st2" d="M727.6,125.9V78.3c0-0.3,0.2-0.7,0.5-0.7c0.1,0,0.1,0,0.2,0h3.6c0.3,0,0.7,0.2,0.7,0.5c0,0.1,0,0.1,0,0.2   v47.6c0,0.3-0.2,0.7-0.5,0.7c-0.1,0-0.1,0-0.2,0h-3.6c-0.3,0-0.7-0.2-0.7-0.5C727.6,126,727.6,125.9,727.6,125.9z"></path>		<path class="st2" d="M771.8,123.6c-3-2.2-4.7-5.8-4.6-9.5v-2.2c0-0.3,0.2-0.7,0.5-0.7c0.1,0,0.1,0,0.2,0h3.4   c0.3,0,0.7,0.2,0.7,0.5c0,0.1,0,0.1,0,0.2v1.9c0,2.6,1.2,5.1,3.4,6.5c2.2,1.7,5.3,2.5,9.3,2.5c3.6,0,6.3-0.8,8.2-2.3   c1.8-1.4,2.9-3.7,2.8-6c0-1.5-0.4-3-1.3-4.2c-1.1-1.4-2.5-2.5-4-3.3c-2.5-1.3-5-2.5-7.6-3.6c-2.8-1.1-5.5-2.3-8.2-3.7   c-1.9-1-3.5-2.4-4.7-4.1c-1.2-1.8-1.9-4-1.8-6.3c-0.2-3.5,1.3-6.9,4.1-9.1c2.7-2.2,6.5-3.2,11.3-3.2c5.2,0,9.3,1.2,12.2,3.6   c2.9,2.3,4.6,5.9,4.5,9.7v1.5c0,0.3-0.2,0.7-0.5,0.7c-0.1,0-0.1,0-0.2,0h-3.5c-0.3,0-0.7-0.2-0.7-0.5c0-0.1,0-0.1,0-0.2v-1.3   c0.1-2.6-1.1-5.1-3.2-6.7c-2.1-1.7-5.1-2.6-8.8-2.6c-3.3,0-5.9,0.7-7.6,2c-1.8,1.4-2.8,3.6-2.7,5.9c-0.1,1.5,0.4,3,1.3,4.2   c1,1.2,2.3,2.2,3.7,2.9c1.6,0.8,4.1,1.9,7.5,3.2c2.8,1.1,5.6,2.4,8.2,3.9c2,1.1,3.7,2.6,5,4.4c1.3,1.9,2,4.1,1.9,6.4   c0.1,3.6-1.5,7.1-4.3,9.4c-2.9,2.3-6.9,3.5-12,3.5C779.1,127.1,774.9,125.9,771.8,123.6z"></path>		<path class="st2" d="M841.9,125.3c-2.4-1.2-4.4-3.1-5.8-5.5c-1.4-2.5-2.1-5.3-2.1-8.2V92.4c-0.1-2.8,0.7-5.6,2.1-8.1   c1.4-2.3,3.4-4.2,5.8-5.4c2.7-1.3,5.6-2,8.6-1.9c3-0.1,5.9,0.6,8.6,1.9c2.4,1.2,4.4,3,5.8,5.3c1.4,2.4,2.1,5.1,2.1,7.9   c0,0.2-0.1,0.4-0.2,0.6c-0.1,0.1-0.3,0.2-0.5,0.2l-3.6,0.2c-0.5,0-0.7-0.2-0.7-0.6v-0.2c0.2-3-1-5.9-3.2-8c-2.3-2.1-5.3-3.1-8.3-3   c-3.1-0.1-6.1,0.9-8.3,3c-2.2,2.1-3.3,5-3.2,8v19.6c-0.1,3,1,5.8,3.2,7.9c4.8,4,11.8,4,16.7,0c2.1-2.1,3.3-5,3.2-7.9v-0.1   c0-0.4,0.2-0.6,0.7-0.6l3.6,0.2c0.5,0,0.7,0.2,0.7,0.6c0.1,2.8-0.7,5.6-2.1,8c-1.4,2.3-3.4,4.2-5.8,5.4c-2.7,1.3-5.6,2-8.6,1.9   C847.5,127.2,844.6,126.6,841.9,125.3z"></path>		<path class="st2" d="M908.9,125.1c-2.5-1.3-4.5-3.3-5.8-5.7c-1.4-2.6-2.1-5.5-2.1-8.5V93.2c-0.1-3,0.6-5.9,2.1-8.5   c1.4-2.4,3.4-4.4,5.8-5.7c2.7-1.4,5.7-2.1,8.8-2c3-0.1,6.1,0.6,8.8,2c2.5,1.3,4.5,3.3,5.9,5.7c1.4,2.6,2.1,5.5,2.1,8.5v17.6   c0.1,3-0.7,5.9-2.1,8.5c-1.4,2.4-3.4,4.4-5.9,5.7c-2.7,1.4-5.7,2.1-8.8,2C914.7,127.2,911.6,126.5,908.9,125.1z M926.2,119.6   c2.2-2.3,3.4-5.4,3.2-8.5V93.2c0.1-3.2-1-6.3-3.2-8.6c-2.3-2.2-5.4-3.4-8.5-3.2c-3.2-0.1-6.2,1-8.5,3.2c-2.2,2.3-3.4,5.4-3.2,8.6   v17.9c0.1,6.6,5.6,11.9,12.2,11.8C921.2,122.8,924.1,121.7,926.2,119.6z"></path>		<path class="st2" d="M418.5,165.9h-25.7c-0.1,0-0.3,0.1-0.3,0.2c0,0,0,0.1,0,0.1v17.3c0,0.1,0.1,0.3,0.2,0.3c0,0,0,0,0.1,0h18   c0.3,0,0.7,0.2,0.7,0.5c0,0.1,0,0.1,0,0.2v2.9c0,0.3-0.2,0.7-0.5,0.7c-0.1,0-0.1,0-0.2,0h-18c-0.1,0-0.3,0.1-0.3,0.2   c0,0,0,0.1,0,0.1v21.5c0,0.3-0.2,0.7-0.5,0.7c-0.1,0-0.1,0-0.2,0h-3.6c-0.3,0-0.7-0.2-0.7-0.5c0-0.1,0-0.1,0-0.2v-47.6   c0-0.3,0.2-0.7,0.5-0.7c0.1,0,0.1,0,0.2,0h30.2c0.3,0,0.7,0.2,0.7,0.5c0,0.1,0,0.1,0,0.2v2.9c0,0.3-0.2,0.7-0.5,0.7   C418.6,165.9,418.6,165.9,418.5,165.9z"></path>		<path class="st2" d="M479.4,165.9h-25.8c-0.1,0-0.3,0.1-0.3,0.2c0,0,0,0.1,0,0.1v17.3c0,0.1,0.1,0.3,0.2,0.3c0,0,0,0,0.1,0h18.1   c0.3,0,0.7,0.2,0.7,0.5c0,0.1,0,0.1,0,0.2v2.9c0,0.3-0.2,0.7-0.5,0.7c-0.1,0-0.1,0-0.2,0h-18.1c-0.1,0-0.3,0.1-0.3,0.2   c0,0,0,0.1,0,0.1v17.6c0,0.1,0.1,0.3,0.2,0.3c0,0,0,0,0.1,0h25.8c0.3,0,0.7,0.2,0.7,0.5c0,0.1,0,0.1,0,0.2v2.9   c0,0.3-0.2,0.7-0.5,0.7c-0.1,0-0.1,0-0.2,0H449c-0.3,0-0.7-0.2-0.7-0.5c0-0.1,0-0.1,0-0.2v-47.6c0-0.3,0.2-0.7,0.5-0.7   c0.1,0,0.1,0,0.2,0h30.3c0.3,0,0.7,0.2,0.7,0.5c0,0.1,0,0.1,0,0.2v2.9c0,0.3-0.2,0.7-0.5,0.7C479.4,165.9,479.4,165.9,479.4,165.9   z"></path>		<path class="st2" d="M539.4,210.1l-10.3-21.7c0-0.1-0.1-0.2-0.3-0.2h-11.9c-0.1,0-0.3,0.1-0.3,0.2c0,0,0,0.1,0,0.1v21.4   c0,0.3-0.2,0.7-0.5,0.7c-0.1,0-0.1,0-0.2,0h-3.6c-0.3,0-0.7-0.2-0.7-0.5c0-0.1,0-0.1,0-0.2v-47.6c0-0.3,0.2-0.7,0.5-0.7   c0.1,0,0.1,0,0.2,0h18.1c3.6-0.2,7.1,1.2,9.7,3.7c4.5,5.1,4.9,12.6,1,18.1c-1.8,2.3-4.4,3.9-7.2,4.4c-0.2,0.1-0.2,0.2-0.1,0.4   l10.5,21.6c0.1,0.1,0.1,0.2,0.1,0.4c0,0.3-0.2,0.5-0.6,0.5h-3.7C539.9,210.6,539.5,210.4,539.4,210.1z M516.7,166.2v17.7   c0,0.1,0.1,0.3,0.2,0.3c0,0,0,0,0.1,0h13c4.8,0.3,8.8-3.4,9.1-8.2c0-0.3,0-0.6,0-0.9c0.1-2.5-0.8-4.9-2.5-6.6   c-1.7-1.7-4.1-2.6-6.5-2.6h-13c-0.1-0.1-0.3,0-0.3,0.1C516.6,166.1,516.6,166.1,516.7,166.2L516.7,166.2z"></path>		<path class="st2" d="M605.4,161.6h3.6c0.3,0,0.7,0.2,0.7,0.5c0,0.1,0,0.1,0,0.2v47.6c0,0.3-0.2,0.7-0.5,0.7c-0.1,0-0.1,0-0.2,0   h-3.5c-0.3,0-0.7-0.2-0.8-0.5l-23.9-38.9c0-0.1-0.1-0.2-0.2-0.2c-0.1,0-0.1,0.1-0.1,0.2l0.1,38.6c0,0.3-0.2,0.7-0.5,0.7   c-0.1,0-0.1,0-0.2,0h-3.6c-0.3,0-0.7-0.2-0.7-0.5c0-0.1,0-0.1,0-0.2v-47.6c0-0.3,0.2-0.7,0.5-0.7c0.1,0,0.1,0,0.2,0h3.5   c0.3,0,0.7,0.2,0.8,0.5l23.9,38.9c0,0.1,0.1,0.2,0.2,0.2s0.1-0.1,0.1-0.2l-0.1-38.6c0-0.3,0.2-0.7,0.5-0.7   C605.3,161.6,605.4,161.6,605.4,161.6z"></path>		<path class="st2" d="M672.1,210l-2.8-8.8c0-0.1-0.1-0.2-0.3-0.2h-21c-0.1,0-0.3,0.1-0.3,0.2L645,210c-0.1,0.4-0.5,0.6-0.8,0.6   h-3.8c-0.5,0-0.7-0.3-0.6-0.8l15.5-47.7c0.1-0.4,0.5-0.6,0.8-0.6h4.8c0.4,0,0.7,0.2,0.8,0.6l15.5,47.7l0.1,0.3   c0,0.3-0.2,0.5-0.6,0.5h-3.8C672.5,210.6,672.2,210.4,672.1,210z M649.2,196.8c0.1,0.1,0.2,0.1,0.2,0.1h18.1c0.1,0,0.2,0,0.2-0.1   c0.1-0.1,0.1-0.2,0-0.2l-9.1-28.6c0-0.1-0.1-0.1-0.2-0.1c-0.1,0-0.2,0-0.2,0.1l-9.1,28.6C649.1,196.6,649.1,196.7,649.2,196.8z    M655.5,156.7c-0.1-0.2-0.1-0.4,0.1-0.6l4.2-7.6c0.1-0.3,0.5-0.5,0.8-0.5h3.2c0.3,0,0.5,0.1,0.5,0.2c0.1,0.2,0,0.4-0.1,0.6   l-4.8,7.6c-0.2,0.3-0.5,0.5-0.8,0.5h-2.5C655.9,157,655.7,156.9,655.5,156.7L655.5,156.7z"></path>		<path class="st2" d="M737.2,161.6h3.6c0.3,0,0.7,0.2,0.7,0.5c0,0.1,0,0.1,0,0.2v47.6c0,0.3-0.2,0.7-0.5,0.7c-0.1,0-0.1,0-0.2,0   h-3.5c-0.3,0-0.7-0.2-0.8-0.5l-23.9-38.9c-0.1-0.1-0.1-0.2-0.2-0.2c-0.1,0-0.1,0.1-0.1,0.2l0.1,38.6c0,0.3-0.2,0.7-0.5,0.7   c-0.1,0-0.1,0-0.2,0H708c-0.3,0-0.7-0.2-0.7-0.5c0-0.1,0-0.1,0-0.2v-47.6c0-0.3,0.2-0.7,0.5-0.7c0.1,0,0.1,0,0.2,0h3.5   c0.3,0,0.7,0.2,0.8,0.5l23.9,38.9c0,0.1,0.1,0.2,0.2,0.2s0.1-0.1,0.1-0.2l-0.1-38.6c-0.1-0.3,0.2-0.7,0.5-0.7   C737.1,161.5,737.2,161.5,737.2,161.6z"></path>		<path class="st2" d="M774.7,209.9v-47.6c0-0.3,0.2-0.7,0.5-0.7c0.1,0,0.1,0,0.2,0h16.5c4.6,0,8.3,1.2,11,3.6   c2.8,2.5,4.3,6.1,4.1,9.9v22c0.2,3.7-1.3,7.4-4.1,9.9c-2.7,2.4-6.4,3.6-11,3.6h-16.5c-0.3,0-0.7-0.2-0.7-0.5   C774.7,210,774.7,209.9,774.7,209.9z M779.9,206.2h12.2c2.7,0.1,5.3-0.8,7.2-2.7c1.8-1.9,2.8-4.5,2.7-7.1v-20.6   c0.4-5.1-3.4-9.5-8.4-9.9c-0.5,0-1,0-1.5,0h-12.2c-0.1,0-0.3,0.1-0.3,0.2c0,0,0,0.1,0,0.1v39.8   C779.6,206.1,779.7,206.2,779.9,206.2C779.9,206.2,779.9,206.2,779.9,206.2z"></path>		<path class="st2" d="M870,165.9h-25.8c-0.1,0-0.3,0.1-0.3,0.2c0,0,0,0.1,0,0.1v17.3c0,0.1,0.1,0.3,0.2,0.3c0,0,0,0,0.1,0h18.1   c0.3,0,0.7,0.2,0.7,0.5c0,0.1,0,0.1,0,0.2v2.9c0,0.3-0.2,0.7-0.5,0.7c-0.1,0-0.1,0-0.2,0h-18.1c-0.1,0-0.3,0.1-0.3,0.2   c0,0,0,0.1,0,0.1v17.6c0,0.1,0.1,0.3,0.2,0.3c0,0,0,0,0.1,0H870c0.3,0,0.7,0.2,0.7,0.5c0,0.1,0,0.1,0,0.2v2.9   c0,0.3-0.2,0.7-0.5,0.7c-0.1,0-0.1,0-0.2,0h-30.4c-0.3,0-0.7-0.2-0.7-0.5c0-0.1,0-0.1,0-0.2v-47.6c0-0.3,0.2-0.7,0.5-0.7   c0.1,0,0.1,0,0.2,0H870c0.3,0,0.7,0.2,0.7,0.5c0,0.1,0,0.1,0,0.2v2.9c0,0.3-0.2,0.7-0.5,0.7C870.1,165.9,870.1,165.9,870,165.9z"></path>		<path class="st2" d="M898.9,209.9v-3.4c0-0.3,0.1-0.6,0.3-0.9l25.6-39.3c0-0.1,0-0.1,0-0.2c0-0.1-0.1-0.1-0.2-0.1h-25   c-0.3,0-0.7-0.2-0.7-0.5c0-0.1,0-0.1,0-0.2v-2.9c0-0.3,0.2-0.7,0.5-0.7c0.1,0,0.1,0,0.2,0h30.2c0.3,0,0.7,0.2,0.7,0.5   c0,0.1,0,0.1,0,0.2v3.4c0,0.3-0.1,0.6-0.3,0.9l-25.5,39.3c-0.1,0-0.1,0.1,0,0.2c0,0.1,0.1,0.1,0.2,0.1h24.9c0.3,0,0.7,0.2,0.7,0.5   c0,0.1,0,0.1,0,0.2v2.9c0,0.3-0.2,0.7-0.5,0.7c-0.1,0-0.1,0-0.2,0h-30.2c-0.3,0-0.7-0.2-0.7-0.5   C898.9,210,898.9,209.9,898.9,209.9z"></path>	</g></g></svg>