<?xml version="1.0" encoding="UTF-8"?>
<svg id="Capa_1" xmlns="http://www.w3.org/2000/svg" version="1.1" viewBox="0 0 934.4 296">
  <!-- Generator: Adobe Illustrator 30.2.1, SVG Export Plug-In . SVG Version: 2.1.1 Build 1)  -->
  <defs>
    <style>
      .st0 {
        fill: #fff;
      }

      .st1 {
        fill: #7b1527;
      }
    </style>
  </defs>
  <g id="Capa_2">
    <g id="Capa_1-2">
      <circle class="st1" cx="148" cy="148" r="148"/>
      <path class="st0" d="M154.7,66.4h104.5l-20,27.5h-51.9v41.3h47.5l-20,27.1h-27.5v67.3h-32.6V66.4h0Z"/>
      <path class="st0" d="M141.3,229.6h-32.6v-67.3h-27.6l-20-27.1h47.5v-41.3h-51.9l-20-27.5h104.5v163.2h.1Z"/>
      <path class="st0" d="M418.5,81.9h-25.7c-.1,0-.3.1-.3.2v17.4c0,.1.1.3.2.3h18.1c.3,0,.7.2.7.5v3.1c0,.3-.2.7-.5.7h-18.2c-.1,0-.3.1-.3.2v21.6c0,.3-.2.7-.5.7h-3.8c-.3,0-.7-.2-.7-.5v-47.8c0-.3.2-.7.5-.7h30.4c.3,0,.7.2.7.5v3.1c0,.3-.2.7-.5.7h-.1Z"/>
      <path class="st0" d="M479.6,126.1l-10.3-21.7c0-.1-.1-.2-.3-.2h-11.9c-.1,0-.3.1-.3.2v21.5c0,.3-.2.7-.5.7h-3.8c-.3,0-.7-.2-.7-.5v-47.8c0-.3.2-.7.5-.7h18.3c3.6-.2,7.1,1.2,9.7,3.7,2.5,2.6,3.9,6.1,3.7,9.8.1,3-.9,5.9-2.7,8.3-1.8,2.3-4.4,3.9-7.2,4.4-.2.1-.2.2-.1.3l10.5,21.6c.1.1.1.2.1.3,0,.3-.2.5-.6.5h-3.7c-.3.1-.6-.1-.7-.4ZM456.8,82.2v17.7c0,.1.1.3.2.3h13.1c4.8.3,8.8-3.4,9.1-8.2v-.9c.1-2.5-.8-4.9-2.5-6.6s-4.1-2.7-6.6-2.6h-13c-.1,0-.3.1-.3.3,0-.1,0,0,0,0Z"/>
      <path class="st0" d="M550,126l-2.8-8.8c0-.1-.1-.2-.3-.2h-20.9c-.1,0-.3.1-.3.2l-2.8,8.8c-.1.4-.5.6-.8.6h-3.8c-.5,0-.7-.3-.6-.8l15.5-47.7c.1-.4.5-.6.8-.6h4.8c.4,0,.7.2.8.6l15.5,47.7.1.3c0,.3-.2.5-.6.5h-3.8c-.3,0-.7-.2-.8-.6ZM527.1,112.8c.1.1.2.1.2.1h18.1c.1,0,.2,0,.2-.1.1-.1.1-.2,0-.2l-9-28.6c0-.1-.1-.1-.2-.1s-.2,0-.2.1l-9.1,28.6c-.1,0-.1.1,0,.2h0Z"/>
      <path class="st0" d="M618.7,77.6h3.6c.3,0,.7.2.7.5v47.8c0,.3-.2.7-.5.7h-3.7c-.3,0-.7-.2-.8-.5l-24-38.9c0-.1-.1-.2-.2-.2s-.1.1-.1.2l.1,38.6c0,.3-.2.7-.5.7h-3.8c-.3,0-.7-.2-.7-.5v-47.7c0-.3.2-.7.5-.7h3.8c.3,0,.7.2.8.5l23.9,38.8c0,.1.1.2.2.2s.1-.1.1-.2l-.1-38.6c0-.3.2-.7.5-.7q.1,0,.2,0Z"/>
      <path class="st0" d="M666.9,125.3c-2.4-1.2-4.4-3.1-5.8-5.5-1.4-2.5-2.1-5.3-2.1-8.2v-19.2c-.1-2.8.7-5.6,2.1-8.1,1.4-2.3,3.4-4.2,5.8-5.4,2.7-1.3,5.6-2,8.6-1.9,3-.1,5.9.6,8.6,1.9,2.4,1.2,4.4,3,5.8,5.3,1.4,2.4,2.1,5.1,2.1,7.9,0,.2-.1.4-.2.6-.1.1-.3.2-.5.2l-3.6.2c-.5,0-.7-.2-.7-.6v-.2c.2-3-1-5.9-3.2-8-2.3-2.1-5.3-3.1-8.3-3-3.1-.1-6.1.9-8.3,3s-3.3,5-3.2,8v19.6c-.1,3,1,5.8,3.2,7.9,4.8,4,11.8,4,16.7,0,2.1-2.1,3.3-5,3.2-7.9v-.1c0-.4.2-.6.7-.6l3.6.2c.5,0,.7.2.7.6.1,2.8-.7,5.6-2.1,8-1.4,2.3-3.4,4.2-5.8,5.4-2.7,1.3-5.6,2-8.6,1.9-3.1-.1-6-.7-8.7-2Z"/>
      <path class="st0" d="M727.6,125.9v-47.6c0-.3.2-.7.5-.7h3.8c.3,0,.7.2.7.5v47.8c0,.3-.2.7-.5.7h-3.8c-.3,0-.7-.2-.7-.5v-.2Z"/>
      <path class="st0" d="M771.8,123.6c-3-2.2-4.7-5.8-4.6-9.5v-2.2c0-.3.2-.7.5-.7h3.6c.3,0,.7.2.7.5v2.1c0,2.6,1.2,5.1,3.4,6.5,2.2,1.7,5.3,2.5,9.3,2.5,3.6,0,6.3-.8,8.2-2.3,1.8-1.4,2.9-3.7,2.8-6,0-1.5-.4-3-1.3-4.2-1.1-1.4-2.5-2.5-4-3.3-2.5-1.3-5-2.5-7.6-3.6-2.8-1.1-5.5-2.3-8.2-3.7-1.9-1-3.5-2.4-4.7-4.1-1.2-1.8-1.9-4-1.8-6.3-.2-3.5,1.3-6.9,4.1-9.1,2.7-2.2,6.5-3.2,11.3-3.2,5.2,0,9.3,1.2,12.2,3.6,2.9,2.3,4.6,5.9,4.5,9.7v1.5c0,.3-.2.7-.5.7h-3.7c-.3,0-.7-.2-.7-.5v-1.5c.1-2.6-1.1-5.1-3.2-6.7-2.1-1.7-5.1-2.6-8.8-2.6-3.3,0-5.9.7-7.6,2-1.8,1.4-2.8,3.6-2.7,5.9-.1,1.5.4,3,1.3,4.2,1,1.2,2.3,2.2,3.7,2.9,1.6.8,4.1,1.9,7.5,3.2,2.8,1.1,5.6,2.4,8.2,3.9,2,1.1,3.7,2.6,5,4.4,1.3,1.9,2,4.1,1.9,6.4.1,3.6-1.5,7.1-4.3,9.4-2.9,2.3-6.9,3.5-12,3.5-5.2.1-9.4-1.1-12.5-3.4Z"/>
      <path class="st0" d="M841.9,125.3c-2.4-1.2-4.4-3.1-5.8-5.5-1.4-2.5-2.1-5.3-2.1-8.2v-19.2c-.1-2.8.7-5.6,2.1-8.1,1.4-2.3,3.4-4.2,5.8-5.4,2.7-1.3,5.6-2,8.6-1.9,3-.1,5.9.6,8.6,1.9,2.4,1.2,4.4,3,5.8,5.3,1.4,2.4,2.1,5.1,2.1,7.9,0,.2-.1.4-.2.6-.1.1-.3.2-.5.2l-3.6.2c-.5,0-.7-.2-.7-.6v-.2c.2-3-1-5.9-3.2-8-2.3-2.1-5.3-3.1-8.3-3-3.1-.1-6.1.9-8.3,3s-3.3,5-3.2,8v19.6c-.1,3,1,5.8,3.2,7.9,4.8,4,11.8,4,16.7,0,2.1-2.1,3.3-5,3.2-7.9v-.1c0-.4.2-.6.7-.6l3.6.2c.5,0,.7.2.7.6.1,2.8-.7,5.6-2.1,8-1.4,2.3-3.4,4.2-5.8,5.4-2.7,1.3-5.6,2-8.6,1.9-3.1-.1-6-.7-8.7-2Z"/>
      <path class="st0" d="M908.9,125.1c-2.5-1.3-4.5-3.3-5.8-5.7-1.4-2.6-2.1-5.5-2.1-8.5v-17.7c-.1-3,.6-5.9,2.1-8.5,1.4-2.4,3.4-4.4,5.8-5.7,2.7-1.4,5.7-2.1,8.8-2,3-.1,6.1.6,8.8,2,2.5,1.3,4.5,3.3,5.9,5.7,1.4,2.6,2.1,5.5,2.1,8.5v17.6c.1,3-.7,5.9-2.1,8.5-1.4,2.4-3.4,4.4-5.9,5.7-2.7,1.4-5.7,2.1-8.8,2-3,.2-6.1-.5-8.8-1.9ZM926.2,119.6c2.2-2.3,3.4-5.4,3.2-8.5v-17.9c.1-3.2-1-6.3-3.2-8.6-2.3-2.2-5.4-3.4-8.5-3.2-3.2-.1-6.2,1-8.5,3.2-2.2,2.3-3.4,5.4-3.2,8.6v17.9c.1,6.6,5.6,11.9,12.2,11.8,3-.1,5.9-1.2,8-3.3Z"/>
      <path class="st0" d="M418.5,165.9h-25.7c-.1,0-.3.1-.3.2v17.4c0,.1.1.3.2.3h18.1c.3,0,.7.2.7.5v3.1c0,.3-.2.7-.5.7h-18.2c-.1,0-.3.1-.3.2v21.6c0,.3-.2.7-.5.7h-3.8c-.3,0-.7-.2-.7-.5v-47.8c0-.3.2-.7.5-.7h30.4c.3,0,.7.2.7.5v3.1c0,.3-.2.7-.5.7t-.1,0Z"/>
      <path class="st0" d="M479.4,165.9h-25.8c-.1,0-.3.1-.3.2v17.4c0,.1.1.3.2.3h18.2c.3,0,.7.2.7.5v3.1c0,.3-.2.7-.5.7h-18.3c-.1,0-.3.1-.3.2v17.7c0,.1.1.3.2.3h25.9c.3,0,.7.2.7.5v3.1c0,.3-.2.7-.5.7h-30.6c-.3,0-.7-.2-.7-.5v-47.8c0-.3.2-.7.5-.7h30.5c.3,0,.7.2.7.5v3.1c0,.3-.2.7-.5.7h-.1Z"/>
      <path class="st0" d="M539.4,210.1l-10.3-21.7c0-.1-.1-.2-.3-.2h-11.9c-.1,0-.3.1-.3.2v21.5c0,.3-.2.7-.5.7h-3.8c-.3,0-.7-.2-.7-.5v-47.8c0-.3.2-.7.5-.7h18.3c3.6-.2,7.1,1.2,9.7,3.7,4.5,5.1,4.9,12.6,1,18.1-1.8,2.3-4.4,3.9-7.2,4.4-.2.1-.2.2-.1.4l10.5,21.6c.1.1.1.2.1.4,0,.3-.2.5-.6.5h-3.7c-.2-.1-.6-.3-.7-.6ZM516.7,166.2v17.7c0,.1.1.3.2.3h13.1c4.8.3,8.8-3.4,9.1-8.2v-.9c.1-2.5-.8-4.9-2.5-6.6-1.7-1.7-4.1-2.6-6.5-2.6h-13c-.1-.1-.3,0-.3.1q-.2.1-.1.2h0Z"/>
      <path class="st0" d="M605.4,161.6h3.6c.3,0,.7.2.7.5v47.8c0,.3-.2.7-.5.7h-3.7c-.3,0-.7-.2-.8-.5l-23.9-38.9c0-.1-.1-.2-.2-.2s-.1.1-.1.2l.1,38.6c0,.3-.2.7-.5.7h-3.8c-.3,0-.7-.2-.7-.5v-47.8c0-.3.2-.7.5-.7h3.7c.3,0,.7.2.8.5l23.9,38.9c0,.1.1.2.2.2s.1-.1.1-.2l-.1-38.6c0-.3.2-.7.5-.7.1,0,.2,0,.2,0Z"/>
      <path class="st0" d="M672.1,210l-2.8-8.8c0-.1-.1-.2-.3-.2h-21c-.1,0-.3.1-.3.2l-2.7,8.8c-.1.4-.5.6-.8.6h-3.8c-.5,0-.7-.3-.6-.8l15.5-47.7c.1-.4.5-.6.8-.6h4.8c.4,0,.7.2.8.6l15.5,47.7.1.3c0,.3-.2.5-.6.5h-3.8c-.4,0-.7-.2-.8-.6ZM649.2,196.8c.1.1.2.1.2.1h18.1c.1,0,.2,0,.2-.1.1-.1.1-.2,0-.2l-9.1-28.6c0-.1-.1-.1-.2-.1s-.2,0-.2.1l-9.1,28.6s0,.1.1.2ZM655.5,156.7c-.1-.2-.1-.4.1-.6l4.2-7.6c.1-.3.5-.5.8-.5h3.2c.3,0,.5.1.5.2.1.2,0,.4-.1.6l-4.8,7.6c-.2.3-.5.5-.8.5h-2.5c-.2.1-.4,0-.6-.2h0Z"/>
      <path class="st0" d="M737.2,161.6h3.6c.3,0,.7.2.7.5v47.8c0,.3-.2.7-.5.7h-3.7c-.3,0-.7-.2-.8-.5l-23.9-38.9c-.1-.1-.1-.2-.2-.2s-.1.1-.1.2l.1,38.6c0,.3-.2.7-.5.7h-3.9c-.3,0-.7-.2-.7-.5v-47.8c0-.3.2-.7.5-.7h3.7c.3,0,.7.2.8.5l23.9,38.9c0,.1.1.2.2.2s.1-.1.1-.2l-.1-38.6c-.1-.3.2-.7.5-.7.2-.1.3-.1.3,0Z"/>
      <path class="st0" d="M774.7,209.9v-47.6c0-.3.2-.7.5-.7h16.7c4.6,0,8.3,1.2,11,3.6,2.8,2.5,4.3,6.1,4.1,9.9v22c.2,3.7-1.3,7.4-4.1,9.9-2.7,2.4-6.4,3.6-11,3.6h-16.5c-.3,0-.7-.2-.7-.5v-.2ZM779.9,206.2h12.2c2.7.1,5.3-.8,7.2-2.7,1.8-1.9,2.8-4.5,2.7-7.1v-20.6c.4-5.1-3.4-9.5-8.4-9.9h-13.7c-.1,0-.3.1-.3.2v39.9c0,.1.1.2.3.2h0Z"/>
      <path class="st0" d="M870,165.9h-25.8c-.1,0-.3.1-.3.2v17.4c0,.1.1.3.2.3h18.2c.3,0,.7.2.7.5v3.1c0,.3-.2.7-.5.7h-18.3c-.1,0-.3.1-.3.2v17.7c0,.1.1.3.2.3h25.9c.3,0,.7.2.7.5v3.1c0,.3-.2.7-.5.7h-30.6c-.3,0-.7-.2-.7-.5v-47.8c0-.3.2-.7.5-.7h30.6c.3,0,.7.2.7.5v3.1c0,.3-.2.7-.5.7q-.1,0-.2,0Z"/>
      <path class="st0" d="M898.9,209.9v-3.4c0-.3.1-.6.3-.9l25.6-39.3v-.2c0-.1-.1-.1-.2-.1h-25c-.3,0-.7-.2-.7-.5v-3.1c0-.3.2-.7.5-.7h30.4c.3,0,.7.2.7.5v3.6c0,.3-.1.6-.3.9l-25.5,39.3c-.1,0-.1.1,0,.2,0,.1.1.1.2.1h24.9c.3,0,.7.2.7.5v3.1c0,.3-.2.7-.5.7h-30.4c-.3,0-.7-.2-.7-.5v-.2Z"/>
    </g>
  </g>
</svg>